<?xml version="1.0" standalone="no"?>
<!DOCTYPE svg PUBLIC "-//W3C//DTD SVG 20010904//EN"
 "http://www.w3.org/TR/2001/REC-SVG-20010904/DTD/svg10.dtd">
<svg version="1.0" xmlns="http://www.w3.org/2000/svg"
 width="768.000000pt" height="768.000000pt" viewBox="0 0 768.000000 768.000000"
 preserveAspectRatio="xMidYMid meet">
<metadata>
Created by potrace 1.11, written by Peter Selinger 2001-2013
</metadata>
<g transform="translate(0.000000,768.000000) scale(0.100000,-0.100000)"
fill="#000000" stroke="none">
<path d="M0 3840 l0 -3840 49 0 c45 0 53 3 74 33 20 27 243 376 621 975 65
103 198 289 303 423 23 30 45 66 48 82 6 23 4 27 -16 27 -34 0 -220 -195 -491
-515 -42 -49 -93 -106 -114 -125 l-38 -35 36 50 c20 28 91 129 158 225 251
359 344 458 553 589 37 24 67 48 67 55 0 6 -16 36 -35 66 -74 117 -53 153 239
409 105 93 205 184 222 202 32 36 74 134 74 174 0 32 -11 37 -104 55 l-79 15
-23 85 c-12 47 -30 135 -39 195 -31 196 -5 497 55 632 l20 46 41 -7 c58 -9
133 -43 160 -72 26 -28 39 -31 39 -8 0 9 -24 111 -53 227 l-52 212 1 308 c1
170 0 307 -2 305 -15 -15 -83 -172 -115 -267 l-40 -116 7 120 c5 94 15 151 46
265 44 162 97 311 136 382 l25 48 -46 97 c-118 253 -149 385 -187 806 -13 142
-31 599 -25 606 11 10 205 -23 286 -49 170 -56 328 -147 562 -323 70 -54 134
-97 140 -97 7 0 62 34 122 76 237 164 483 294 677 358 185 62 191 62 465 27
134 -17 250 -28 258 -24 31 11 12 47 -40 76 l-50 28 60 -6 c242 -24 606 -151
835 -290 32 -19 63 -35 69 -35 6 0 57 29 115 64 200 124 476 251 709 325 53
17 101 31 106 31 10 0 26 -73 45 -205 52 -356 45 -750 -21 -1131 -4 -23 5 -51
37 -114 60 -118 157 -369 186 -480 43 -162 56 -654 23 -895 -16 -111 -47 -165
-129 -223 -70 -50 -83 -63 -72 -74 4 -4 66 -10 137 -13 335 -16 531 -67 711
-188 135 -91 329 -302 348 -379 11 -47 -80 -276 -153 -382 -31 -45 -105 -117
-140 -135 -11 -7 -21 -16 -21 -22 0 -6 127 -140 283 -297 283 -288 402 -423
531 -605 48 -67 72 -94 78 -85 4 7 8 1400 8 3096 l0 3082 -3840 0 -3840 0 0
-3840z m1557 378 c-3 -8 -6 -5 -6 6 -1 11 2 17 5 13 3 -3 4 -12 1 -19z"/>
<path d="M2833 2378 c-5 -7 -20 -38 -33 -68 -12 -30 -51 -111 -85 -180 -67
-132 -62 -127 -272 -325 l-53 -49 -22 21 c-61 55 -118 29 -118 -55 0 -71 -27
-289 -45 -357 -70 -272 -274 -456 -1215 -1100 -352 -241 -360 -246 -360 -257
0 -4 218 -8 484 -8 l484 0 6 38 c30 168 70 207 249 242 65 13 65 13 247 251
106 138 209 248 256 272 17 9 76 27 132 41 107 28 387 128 461 165 65 34 129
97 137 136 8 43 -11 197 -37 300 -29 114 -18 155 42 155 26 0 24 13 -14 78
-80 139 -114 250 -88 291 5 7 37 20 72 28 35 8 72 22 82 30 22 21 23 93 1 139
-24 49 -121 135 -208 183 -82 45 -89 47 -103 29z"/>
<path d="M5853 2058 c-12 -13 -53 -70 -91 -128 -166 -249 -318 -381 -627 -546
-43 -23 -62 -39 -68 -60 -5 -16 -15 -43 -23 -61 -16 -37 -36 -132 -29 -142 2
-4 46 -26 97 -48 93 -40 93 -41 311 -56 211 -16 220 -17 284 -49 134 -66 217
-171 302 -383 126 -315 211 -533 217 -557 l6 -28 539 0 c296 0 539 2 539 5 0
3 -36 44 -80 91 -486 516 -953 1193 -1286 1867 -32 64 -61 117 -65 117 -3 0
-15 -10 -26 -22z"/>
</g>
</svg>
