<svg xmlns="http://www.w3.org/2000/svg" version="1" viewBox="0 0 768 768"><path d="M0 384v384h5c4 0 5 0 8-5l47-74c19-31 26-41 39-58 10-11 12-16 9-17-2-1-29 28-52 56a1115 1115 0 0 1-20 21l20-28c30-44 37-51 55-64l14-9-4-7c-9-12-5-17 33-49l16-15 2-6c3-5 3-10 1-12l-10-2c-5 0-7-1-7-2l-4-15c-4-20-5-33-2-54 3-17 5-24 8-26 4-2 20 4 22 9l2 1-4-18c-8-29-9-38-7-70l1-19a180 180 0 0 0-18 51l3-37c5-22 15-52 19-55 1-1 1-2-4-12-7-14-11-25-14-41a709 709 0 0 1-7-90v-10h8c24 2 49 14 79 38l11 8c1 1 4 0 13-7 27-19 58-35 82-40 6-2 7-2 30 1 28 4 30 4 30 1 0-1-2-3-6-5l-6-3h9a222 222 0 0 1 89 33l11-7c22-14 52-27 76-34l7-2 2 9a359 359 0 0 1 1 120c-2 7-2 8-1 10l8 16c17 41 18 47 18 84 1 27-1 44-3 53-2 7-7 12-14 16-8 5-7 6 6 6 25 0 46 4 62 12 13 6 21 13 33 25 11 12 15 18 14 24-1 5-8 24-13 31a51 51 0 0 1-19 19l27 28a393 393 0 0 1 62 72l1-310V0H0v384z"/><path d="M283 531c-1 5-14 31-17 36l-15 15-12 11-3-3c-3-2-6-3-9-1-1 1-2 3-2 15-2 23-4 34-12 46-12 20-38 41-124 99l-26 18c-1 1 21 1 47 1h49l1-4c2-15 6-20 18-23l10-2c3 0 5-3 18-20 23-30 27-33 43-36l11-3 16-6c19-6 30-13 32-20 1-5-1-19-3-29-3-8-3-10-2-13 1-4 1-4 5-4l3-1-7-12c-6-13-8-17-6-23 1-3 1-3 7-4 11-2 12-4 10-14-2-6-12-16-23-21l-7-4-2 2zM584 564c-6 11-17 26-25 34-9 10-23 20-41 30-9 4-11 6-11 8l-1 4c-2 1-5 15-4 16l18 8 25 2c17 1 19 1 25 4 18 9 24 17 41 64l11 27 2 7h107l-13-14a784 784 0 0 1-130-194l-4 4z"/></svg>